<?xml version="1.0" encoding="UTF-8"?>
<svg id="Layer_1" data-name="Layer 1" xmlns="http://www.w3.org/2000/svg" viewBox="0 0 1709.09 1831.61">
  <defs>
    <style>
      .cls-1 {
        fill: #014b30;
      }

      .cls-2 {
        fill: #e7fba0;
      }
    </style>
  </defs>
  <rect class="cls-2" x="305.37" y="366.62" width="1098.36" height="1098.36" rx="294.27" ry="294.27"/>
  <g>
    <path class="cls-1" d="M1238.6,871.51c-3.24-2.01-6.96-3.36-10.97-3.83l-33.41,1.87-69.03,3.87c-32.16,3.26-70.16,6.51-114.01,9.74-43.85,3.26-92.57,6.19-146.16,8.78-53.59,2.6-108.5,4.55-164.68,5.84-56.19,1.31-112.38,1.95-168.56,1.95s-109.62-1.12-160.29-3.41c-22.97-1.03-45.01-2.33-66.12-3.89v84.66c51.84,4.38,107.98,7.35,168.43,8.88,64.31,1.61,129.26,1.45,194.88-.49,65.6-1.95,129.91-5.21,192.93-9.75,63-4.55,120.98-10.08,173.93-16.56,52.93-6.49,98.25-13.79,135.92-21.93,12.52-2.7,23.84-5.44,33.92-8.26,11.46-3.18,21.35-6.44,29.66-9.77,5.03-2.02,9.11-5.51,11.93-9.86,1.47-2.26,2.6-4.75,3.34-7.38.69-2.43,1.05-4.98,1.05-7.58,0-9.59-5.05-18.11-12.76-22.88Z"/>
    <g>
      <rect class="cls-1" x="1080.66" y="935.11" width="281.81" height="68.37" transform="translate(-228.92 1541.87) rotate(-59.97)"/>
      <rect class="cls-1" x="1041.62" y="789.14" width="281.81" height="68.37" transform="translate(570.7 -481.25) rotate(30.03)"/>
    </g>
  </g>
</svg>