<?xml version="1.0" encoding="UTF-8"?>
<svg id="Layer_1" data-name="Layer 1" xmlns="http://www.w3.org/2000/svg" viewBox="0 0 2500 530.77">
  <defs>
    <style>
      .cls-1 {
        fill: #014b30;
      }
    </style>
  </defs>
  <path class="cls-1" d="M1639.42,121.58v116.18h3.83v-116.18h-3.83ZM1656.55,286.2l-12.77,5.32v14.91h1.89l9.15-1.49h.04l10.2-1.69v-17.05h-8.5ZM1639.42,194.64v43.12h3.83v-43.12h-3.83ZM1604.92,194.64v10.68c.28-3.71.52-7.25.68-10.68h-.68Z"/>
  <path class="cls-1" d="M1656.55,286.2l-12.77,5.32v14.91h8.5l2.54-1.49h.04l10.2-5.96v-12.77h-8.5Z"/>
  <path class="cls-1" d="M1656.55,286.2l-12.77,5.32v14.91h8.5l2.54-1.49h.04l10.2-1.69v-17.05h-8.5Z"/>
  <rect class="cls-1" x="1331.02" y="121.58" width="99.83" height="37.35"/>
  <path class="cls-1" d="M1380.92,369.83c-47.86,0-86.8-43.09-86.8-96.05s38.94-96.05,86.8-96.05,86.81,43.09,86.81,96.05-38.94,96.05-86.81,96.05ZM1380.92,216.34c-26.57,0-48.18,25.76-48.18,57.44s21.61,57.44,48.18,57.44,48.2-25.76,48.2-57.44-21.63-57.44-48.2-57.44Z"/>
  <rect class="cls-1" x="1570.78" y="371.82" width="99.83" height="37.35"/>
  <path class="cls-1" d="M2314.98,272.22l.04-.08-133.27-77.01-18.7,32.32,82.33,47.59-37.68,2.14c-17.57,1.77-38.32,3.55-62.26,5.32-23.98,1.77-50.57,3.39-79.83,4.8-29.3,1.41-59.28,2.5-89.99,3.18-30.67.73-61.37,1.05-92.08,1.05s-59.88-.6-87.57-1.85c-27.64-1.25-52.87-3.18-75.56-5.84-21.16-2.5-38.61-5.64-52.35-9.51-1.01-.28-2.01-.44-3.02-.48v-.4c-7.09-1.77-12.49-5.04-16.24-9.83-3.71-4.8-5.56-11.08-5.56-18.9v-6.93h-3.83v-116.18h-34.49v73.06h.68c-.16,3.43-.4,6.97-.68,10.68v-10.68h-96.88c1.05,9.95,1.85,23.78,2.38,31.96.52,8.18.81,17.21.81,27.16v90.47c-5.32,8.87-12.17,14.55-20.51,17.05-8.34,2.46-17.29,3.55-26.88,3.18h-11.04l-.12,2.66-3.18,35.66c3.91,2.14,8.78,3.71,14.63,4.8,5.84,1.05,10.36,1.61,13.58,1.61,12.77,0,23.66-3.14,32.72-9.35,9.07-6.21,16.4-14.19,22.08-23.94,5.68-9.75,9.75-20.75,12.25-33,2.46-12.25,3.71-24.58,3.71-36.99v-51.1c0-5.64-.12-11.32-.32-17.05h56.78v13.34c0,12.41,1.73,22.97,5.32,31.63,3.18,7.86,14.99,18.17,22.97,23.7.08.08.16.16.24.16.36.28.77.52,1.13.81.32.28.69.48,1.05.69,10.07,5.36,23.7,9.95,40.86,13.78,22.16,5,48.2,8.78,77.98,11.44,29.82,2.66,62.3,4.43,97.4,5.32,35.14.89,70.64.81,106.47-.24,35.83-1.09,70.97-2.86,105.38-5.32,34.41-2.5,66.09-5.52,95.02-9.07,28.93-3.55,53.68-7.54,74.27-11.97,6.81-1.45,12.98-2.98,18.5-4.51l-45.82,79.31,32.32,18.7,77.05-133.27-.08-.04ZM1665.05,303.24l-10.2,1.69h-.04l-2.54,1.49h-8.5v-14.91l12.77-5.32h8.5v17.05Z"/>
  <g>
    <path class="cls-1" d="M184.94,319.92h40.82c1.11,31.17,17.44,46.75,49.35,46.75,27.46,0,43.79-14.1,43.79-38.22,0-19.3-10.76-31.91-36.36-43.41l-26.35-11.88c-48.98-22.26-65.68-41.56-65.68-77.55,0-39.33,31.91-66.05,80.89-66.05,53.06,0,82.75,27.09,83.86,75.33h-40.82c-1.11-26.71-15.96-40.82-43.04-40.82-25.6,0-40.45,12.62-40.45,33.77,0,16.33,10.39,27.09,39.7,40.45l25.6,11.5c46.75,21.15,63.45,42.67,63.45,80.52,0,43.05-33.4,70.88-84.97,70.88-56.77,0-88.68-28.94-89.8-81.26Z"/>
    <path class="cls-1" d="M551.16,395.25h-155.85V135.5h155.85v36.37h-115.4v70.13h104.27v36.37h-104.27v80.52h115.4v36.37Z"/>
    <path class="cls-1" d="M742.97,395.25h-155.85V135.5h155.85v36.37h-115.4v70.13h104.27v36.37h-104.27v80.52h115.4v36.37Z"/>
    <path class="cls-1" d="M960.76,395.25h-44.53l-60.11-103.53h-36.74v103.53h-40.45V135.5h90.91c56.03,0,77.55,21.15,77.55,76.07,0,44.53-14.47,65.68-50.84,73.47l64.19,110.2ZM819.39,171.87v83.49h44.53c31.17,0,42.67-11.14,42.67-41.93s-11.5-41.56-42.67-41.56h-44.53Z"/>
    <path class="cls-1" d="M1169.65,395.25h-40.07l-8.91-80.89h-96.1l-8.9,80.89h-40.07l20.04-179.6c6.68-62.34,27.83-86.09,77.18-86.09s70.13,23.75,77.18,86.09l19.67,179.6ZM1028.64,277.62h87.94l-6.31-56.77c-4.45-40.45-14.1-54.54-37.48-54.54s-33.39,14.1-37.85,54.54l-6.31,56.77Z"/>
  </g>
  <path class="cls-1" d="M1605.61,194.64c-.16,3.43-.4,6.97-.68,10.68v-10.68h.68Z"/>
</svg>